<?xml version="1.0" encoding="UTF-8"?>
<svg xmlns="http://www.w3.org/2000/svg" version="1.1" viewBox="0 0 600 127.5">
  <defs>
    <style>
      .cls-1 {
        fill: #000;
        fill-rule: evenodd;
        stroke-width: 0px;
      }
    </style>
  </defs>
  <g id="Layer_1" data-name="Layer 1" focusable="false">
    <path class="cls-1" d="M545.5,103.2v-34.7h38.4v-17.7h-38.4v-27.5h47.6V5.6h-67.2v115.3h72.1v-17.7h-52.5ZM491.6,125.3l.2-119.9h-19.6l.3,75.9L386.2,2.2l-.2,118.6h19.6l-.3-73,86.2,77.4ZM351.6,120.9V5.4s-19.6,0-19.6,0v115.4s19.6,0,19.6,0ZM239.2,120.9h68.3v-17.7h-48.6V5.4h-19.6v115.5h0ZM137.6,120.9h72.1v-17.7h-52.5v-34.7h38.4v-17.7h-38.4v-27.5h47.6V5.6h-67.2v115.3ZM22.9,62.5c0-22,15.3-42,41.4-42s23.8,4.3,31.9,12.2l10.4-13.6c-3.8-4.6-18.6-16.3-42.3-16.3C27.5,2.8,2,30.6,2,63s26.8,60.6,64.4,60.6,30.4-5.3,41-15.4l-9.1-12.7c-4.6,4.6-16.4,10.5-31,10.5-26.2,0-44.5-19.4-44.5-43.5h0Z"/>
  </g>
</svg>